<?xml version="1.0" standalone="no"?>
<!DOCTYPE svg PUBLIC "-//W3C//DTD SVG 20010904//EN"
 "http://www.w3.org/TR/2001/REC-SVG-20010904/DTD/svg10.dtd">
<svg version="1.0" xmlns="http://www.w3.org/2000/svg"
 width="700.000000pt" height="700.000000pt" viewBox="0 0 700.000000 700.000000"
 preserveAspectRatio="xMidYMid meet">
<metadata>
Created by potrace 1.14, written by Peter Selinger 2001-2017
</metadata>
<g transform="translate(0.000000,700.000000) scale(0.100000,-0.100000)"
fill="#000000" stroke="none">
<path d="M1904 6202 c-27 -4 -63 -42 -69 -73 -6 -29 -6 -284 0 -354 4 -53 12
-119 19 -164 3 -14 7 -44 11 -67 3 -22 18 -88 34 -146 l28 -106 -131 -32
c-349 -86 -632 -210 -761 -334 -56 -54 -61 -98 -16 -143 55 -55 339 -211 501
-275 52 -21 94 -42 93 -47 -2 -6 -32 -50 -67 -98 -117 -160 -222 -383 -271
-573 -88 -345 -81 -643 26 -1045 16 -60 31 -119 34 -129 2 -11 21 -69 41 -130
117 -352 311 -727 513 -991 25 -33 48 -62 51 -65 3 -3 30 -34 60 -70 167 -197
400 -383 586 -466 87 -39 191 -73 243 -80 25 -3 49 -8 53 -11 5 -2 52 -4 105
-4 157 0 263 33 406 129 87 58 155 81 233 77 66 -3 148 -34 206 -79 103 -78
266 -130 408 -129 395 0 835 309 1189 833 189 280 329 575 441 925 45 143 91
324 105 415 3 19 12 73 19 120 14 81 16 417 4 465 -3 11 -9 43 -12 70 -16 112
-99 385 -128 423 -6 6 -7 12 -4 12 4 0 -2 14 -14 30 -12 17 -18 30 -15 30 3 0
-3 13 -14 29 -12 16 -21 32 -21 36 0 17 -101 167 -171 255 -306 384 -732 627
-1209 691 -74 9 -245 13 -285 5 -86 -16 -119 -17 -109 -4 6 7 33 42 60 78 57
75 159 196 249 292 34 37 65 79 67 93 9 43 -59 167 -131 243 -24 24 -40 32
-69 33 -233 6 -523 3 -546 -4 -33 -11 -81 -81 -145 -213 l-43 -89 -77 73
c-137 132 -325 260 -499 339 -42 19 -92 41 -111 50 -81 37 -320 108 -426 127
-16 3 -39 8 -50 10 -11 2 -40 7 -65 11 -25 4 -54 9 -65 11 -17 3 -112 11 -210
18 -16 1 -40 0 -51 -2z"/>
</g>
</svg>
